<svg xmlns="http://www.w3.org/2000/svg" xmlns:xlink="http://www.w3.org/1999/xlink" contentStyleType="text/css" height="487px" preserveAspectRatio="none" style="width:955px;height:487px;background:#FFFFFF;" version="1.1" viewBox="0 0 955 487" width="955px" zoomAndPan="magnify"><defs/><g><!--cluster ea923f1b2bb18c5d988d48c0c8c83f44--><g id="cluster_ea923f1b2bb18c5d988d48c0c8c83f44"><path d="M8.5,6 L67.5,6 A3.75,3.75 0 0 1 70,8.5 L77,28.2969 L945.5,28.2969 A2.5,2.5 0 0 1 948,30.7969 L948,478.17 A2.5,2.5 0 0 1 945.5,480.67 L8.5,480.67 A2.5,2.5 0 0 1 6,478.17 L6,8.5 A2.5,2.5 0 0 1 8.5,6 " fill="none" style="stroke:#000000;stroke-width:1.5;"/><line style="stroke:#000000;stroke-width:1.5;" x1="6" x2="77" y1="28.2969" y2="28.2969"/><text fill="#000000" font-family="sans-serif" font-size="14" font-weight="bold" lengthAdjust="spacing" textLength="58" x="10" y="20.9951">task_ai/</text></g><!--cluster 362fd7b4428e0950c1373591190aea3a--><g id="cluster_362fd7b4428e0950c1373591190aea3a"><path d="M32.5,49 L67.5,49 A3.75,3.75 0 0 1 70,51.5 L77,71.2969 L339.5,71.2969 A2.5,2.5 0 0 1 342,73.7969 L342,454.17 A2.5,2.5 0 0 1 339.5,456.67 L32.5,456.67 A2.5,2.5 0 0 1 30,454.17 L30,51.5 A2.5,2.5 0 0 1 32.5,49 " fill="none" style="stroke:#000000;stroke-width:1.5;"/><line style="stroke:#000000;stroke-width:1.5;" x1="30" x2="77" y1="71.2969" y2="71.2969"/><text fill="#000000" font-family="sans-serif" font-size="14" font-weight="bold" lengthAdjust="spacing" textLength="34" x="34" y="63.9951">app/</text></g><!--entity d0760789c9f0586e71836e0ecd435e06--><g id="elem_d0760789c9f0586e71836e0ecd435e06"><rect fill="#F1F1F1" height="78.8906" rx="2.5" ry="2.5" style="stroke:#181818;stroke-width:0.5;" width="70" x="358" y="84"/><rect fill="#F1F1F1" height="10" style="stroke:#181818;stroke-width:0.5;" width="15" x="408" y="89"/><rect fill="#F1F1F1" height="2" style="stroke:#181818;stroke-width:0.5;" width="4" x="406" y="91"/><rect fill="#F1F1F1" height="2" style="stroke:#181818;stroke-width:0.5;" width="4" x="406" y="95"/><text fill="#000000" font-family="sans-serif" font-size="14" font-weight="bold" lengthAdjust="spacing" textLength="30" x="373" y="116.9951">urls</text><text fill="#000000" font-family="sans-serif" font-size="14" lengthAdjust="spacing" textLength="4" x="373" y="133.292">&#160;</text><text fill="#000000" font-family="sans-serif" font-size="14" lengthAdjust="spacing" textLength="4" x="373" y="149.5889">&#160;</text></g><!--entity a5b637d9f1d9ef8ae8b3562c4933cc3e--><g id="elem_a5b637d9f1d9ef8ae8b3562c4933cc3e"><rect fill="#F1F1F1" height="78.8906" rx="2.5" ry="2.5" style="stroke:#181818;stroke-width:0.5;" width="89" x="462.5" y="84"/><rect fill="#F1F1F1" height="10" style="stroke:#181818;stroke-width:0.5;" width="15" x="531.5" y="89"/><rect fill="#F1F1F1" height="2" style="stroke:#181818;stroke-width:0.5;" width="4" x="529.5" y="91"/><rect fill="#F1F1F1" height="2" style="stroke:#181818;stroke-width:0.5;" width="4" x="529.5" y="95"/><text fill="#000000" font-family="sans-serif" font-size="14" font-weight="bold" lengthAdjust="spacing" textLength="49" x="477.5" y="116.9951">celery</text><text fill="#000000" font-family="sans-serif" font-size="14" lengthAdjust="spacing" textLength="4" x="477.5" y="133.292">&#160;</text><text fill="#000000" font-family="sans-serif" font-size="14" lengthAdjust="spacing" textLength="4" x="477.5" y="149.5889">&#160;</text></g><path d="M589,97.15 L637,97.15 A3.75,3.75 0 0 1 639.5,99.65 L646.5,119.4469 L651,119.4469 A2.5,2.5 0 0 1 653.5,121.9469 L653.5,147.2438 A2.5,2.5 0 0 1 651,149.7438 L589,149.7438 A2.5,2.5 0 0 1 586.5,147.2438 L586.5,99.65 A2.5,2.5 0 0 1 589,97.15 " fill="#F1F1F1" style="stroke:#181818;stroke-width:0.5;"/><line style="stroke:#181818;stroke-width:0.5;" x1="586.5" x2="646.5" y1="119.4469" y2="119.4469"/><text fill="#000000" font-family="sans-serif" font-size="14" font-weight="bold" lengthAdjust="spacing" textLength="47" x="590.5" y="112.1451">tasks/</text><!--entity 7a850ee085757b5048bb1f8f95c8ff8a--><g id="elem_7a850ee085757b5048bb1f8f95c8ff8a"><rect fill="#F1F1F1" height="78.8906" rx="2.5" ry="2.5" style="stroke:#181818;stroke-width:0.5;" width="86" x="79" y="84"/><rect fill="#F1F1F1" height="10" style="stroke:#181818;stroke-width:0.5;" width="15" x="145" y="89"/><rect fill="#F1F1F1" height="2" style="stroke:#181818;stroke-width:0.5;" width="4" x="143" y="91"/><rect fill="#F1F1F1" height="2" style="stroke:#181818;stroke-width:0.5;" width="4" x="143" y="95"/><text fill="#000000" font-family="sans-serif" font-size="14" font-weight="bold" lengthAdjust="spacing" textLength="46" x="94" y="116.9951">views</text><text fill="#000000" font-family="sans-serif" font-size="14" lengthAdjust="spacing" textLength="4" x="94" y="133.292">&#160;</text><text fill="#000000" font-family="sans-serif" font-size="14" lengthAdjust="spacing" textLength="4" x="94" y="149.5889">&#160;</text></g><!--entity ff7eb1f14213dd29468e44877b0c909d--><g id="elem_ff7eb1f14213dd29468e44877b0c909d"><rect fill="#F1F1F1" height="78.8906" rx="2.5" ry="2.5" style="stroke:#181818;stroke-width:0.5;" width="122" x="46" y="222.89"/><rect fill="#F1F1F1" height="10" style="stroke:#181818;stroke-width:0.5;" width="15" x="148" y="227.89"/><rect fill="#F1F1F1" height="2" style="stroke:#181818;stroke-width:0.5;" width="4" x="146" y="229.89"/><rect fill="#F1F1F1" height="2" style="stroke:#181818;stroke-width:0.5;" width="4" x="146" y="233.89"/><text fill="#000000" font-family="sans-serif" font-size="14" font-weight="bold" lengthAdjust="spacing" textLength="82" x="61" y="255.8851">serializers</text><text fill="#000000" font-family="sans-serif" font-size="14" lengthAdjust="spacing" textLength="4" x="61" y="272.182">&#160;</text><text fill="#000000" font-family="sans-serif" font-size="14" lengthAdjust="spacing" textLength="4" x="61" y="288.4789">&#160;</text></g><!--entity 4b386146fc160e12fd270cab38c655de--><g id="elem_4b386146fc160e12fd270cab38c655de"><rect fill="#F1F1F1" height="78.8906" rx="2.5" ry="2.5" style="stroke:#181818;stroke-width:0.5;" width="78" x="230" y="84"/><rect fill="#F1F1F1" height="10" style="stroke:#181818;stroke-width:0.5;" width="15" x="288" y="89"/><rect fill="#F1F1F1" height="2" style="stroke:#181818;stroke-width:0.5;" width="4" x="286" y="91"/><rect fill="#F1F1F1" height="2" style="stroke:#181818;stroke-width:0.5;" width="4" x="286" y="95"/><text fill="#000000" font-family="sans-serif" font-size="14" font-weight="bold" lengthAdjust="spacing" textLength="38" x="245" y="116.9951">apps</text><text fill="#000000" font-family="sans-serif" font-size="14" lengthAdjust="spacing" textLength="4" x="245" y="133.292">&#160;</text><text fill="#000000" font-family="sans-serif" font-size="14" lengthAdjust="spacing" textLength="4" x="245" y="149.5889">&#160;</text></g><!--entity a3649b4a110ce79b6807a3d1e3afecdf--><g id="elem_a3649b4a110ce79b6807a3d1e3afecdf"><rect fill="#F1F1F1" height="78.8906" rx="2.5" ry="2.5" style="stroke:#181818;stroke-width:0.5;" width="97" x="155.5" y="361.78"/><rect fill="#F1F1F1" height="10" style="stroke:#181818;stroke-width:0.5;" width="15" x="232.5" y="366.78"/><rect fill="#F1F1F1" height="2" style="stroke:#181818;stroke-width:0.5;" width="4" x="230.5" y="368.78"/><rect fill="#F1F1F1" height="2" style="stroke:#181818;stroke-width:0.5;" width="4" x="230.5" y="372.78"/><text fill="#000000" font-family="sans-serif" font-size="14" font-weight="bold" lengthAdjust="spacing" textLength="57" x="170.5" y="394.7751">models</text><text fill="#000000" font-family="sans-serif" font-size="14" lengthAdjust="spacing" textLength="4" x="170.5" y="411.072">&#160;</text><text fill="#000000" font-family="sans-serif" font-size="14" lengthAdjust="spacing" textLength="4" x="170.5" y="427.3689">&#160;</text></g><!--entity 9e34ad2fb98e6ba8fac7e77df750b976--><g id="elem_9e34ad2fb98e6ba8fac7e77df750b976"><rect fill="#F1F1F1" height="78.8906" rx="2.5" ry="2.5" style="stroke:#181818;stroke-width:0.5;" width="87" x="239.5" y="222.89"/><rect fill="#F1F1F1" height="10" style="stroke:#181818;stroke-width:0.5;" width="15" x="306.5" y="227.89"/><rect fill="#F1F1F1" height="2" style="stroke:#181818;stroke-width:0.5;" width="4" x="304.5" y="229.89"/><rect fill="#F1F1F1" height="2" style="stroke:#181818;stroke-width:0.5;" width="4" x="304.5" y="233.89"/><text fill="#000000" font-family="sans-serif" font-size="14" font-weight="bold" lengthAdjust="spacing" textLength="47" x="254.5" y="255.8851">admin</text><text fill="#000000" font-family="sans-serif" font-size="14" lengthAdjust="spacing" textLength="4" x="254.5" y="272.182">&#160;</text><text fill="#000000" font-family="sans-serif" font-size="14" lengthAdjust="spacing" textLength="4" x="254.5" y="288.4789">&#160;</text></g><path d="M691.5,97.15 L752.5,97.15 A3.75,3.75 0 0 1 755,99.65 L762,119.4469 L766.5,119.4469 A2.5,2.5 0 0 1 769,121.9469 L769,147.2438 A2.5,2.5 0 0 1 766.5,149.7438 L691.5,149.7438 A2.5,2.5 0 0 1 689,147.2438 L689,99.65 A2.5,2.5 0 0 1 691.5,97.15 " fill="#F1F1F1" style="stroke:#181818;stroke-width:0.5;"/><line style="stroke:#181818;stroke-width:0.5;" x1="689" x2="762" y1="119.4469" y2="119.4469"/><text fill="#000000" font-family="sans-serif" font-size="14" font-weight="bold" lengthAdjust="spacing" textLength="60" x="693" y="112.1451">signals/</text><path d="M806.5,97.15 L915.5,97.15 A3.75,3.75 0 0 1 918,99.65 L925,119.4469 L929.5,119.4469 A2.5,2.5 0 0 1 932,121.9469 L932,147.2438 A2.5,2.5 0 0 1 929.5,149.7438 L806.5,149.7438 A2.5,2.5 0 0 1 804,147.2438 L804,99.65 A2.5,2.5 0 0 1 806.5,97.15 " fill="#F1F1F1" style="stroke:#181818;stroke-width:0.5;"/><line style="stroke:#181818;stroke-width:0.5;" x1="804" x2="925" y1="119.4469" y2="119.4469"/><text fill="#000000" font-family="sans-serif" font-size="14" font-weight="bold" lengthAdjust="spacing" textLength="108" x="808" y="112.1451">openai_client/</text><!--link 7a850ee085757b5048bb1f8f95c8ff8a to a3649b4a110ce79b6807a3d1e3afecdf--><g id="link_7a850ee085757b5048bb1f8f95c8ff8a_a3649b4a110ce79b6807a3d1e3afecdf"><path codeLine="47" d="M152.55,162.96 C164.69,180.31 177.53,201.64 185,222.89 C201.07,268.61 204.5393,318.7002 204.8493,355.4002 " fill="none" id="7a850ee085757b5048bb1f8f95c8ff8a-to-a3649b4a110ce79b6807a3d1e3afecdf" style="stroke:#181818;stroke-width:1.0;"/><polygon fill="#181818" points="204.9,361.4,208.8238,352.3665,204.8578,356.4002,200.8241,352.4341,204.9,361.4" style="stroke:#181818;stroke-width:1.0;"/></g><!--link 7a850ee085757b5048bb1f8f95c8ff8a to ff7eb1f14213dd29468e44877b0c909d--><g id="link_7a850ee085757b5048bb1f8f95c8ff8a_ff7eb1f14213dd29468e44877b0c909d"><path codeLine="48" d="M117.74,163.3 C115.7,181.96 113.9138,198.2757 111.8738,216.8857 " fill="none" id="7a850ee085757b5048bb1f8f95c8ff8a-to-ff7eb1f14213dd29468e44877b0c909d" style="stroke:#181818;stroke-width:1.0;"/><polygon fill="#181818" points="111.22,222.85,116.1769,214.3395,111.7648,217.8798,108.2245,213.4677,111.22,222.85" style="stroke:#181818;stroke-width:1.0;"/></g><!--link ff7eb1f14213dd29468e44877b0c909d to a3649b4a110ce79b6807a3d1e3afecdf--><g id="link_ff7eb1f14213dd29468e44877b0c909d_a3649b4a110ce79b6807a3d1e3afecdf"><path codeLine="49" d="M134.54,302.2 C147.76,320.85 160.0823,338.2336 173.2623,356.8436 " fill="none" id="ff7eb1f14213dd29468e44877b0c909d-to-a3649b4a110ce79b6807a3d1e3afecdf" style="stroke:#181818;stroke-width:1.0;"/><polygon fill="#181818" points="176.73,361.74,174.7927,352.0836,173.8402,357.6597,168.2641,356.7072,176.73,361.74" style="stroke:#181818;stroke-width:1.0;"/></g><!--link 9e34ad2fb98e6ba8fac7e77df750b976 to a3649b4a110ce79b6807a3d1e3afecdf--><g id="link_9e34ad2fb98e6ba8fac7e77df750b976_a3649b4a110ce79b6807a3d1e3afecdf"><path codeLine="50" d="M260.57,302.2 C249.81,320.85 239.9491,337.9333 229.2091,356.5433 " fill="none" id="9e34ad2fb98e6ba8fac7e77df750b976-to-a3649b4a110ce79b6807a3d1e3afecdf" style="stroke:#181818;stroke-width:1.0;"/><polygon fill="#181818" points="226.21,361.74,234.1731,355.9443,228.7092,357.4094,227.2441,351.9456,226.21,361.74" style="stroke:#181818;stroke-width:1.0;"/></g><!--SRC=[ZPBTQkCm48Nl_HIcbu6oaaRIpDpiYonB6Or6mTHnGjpTxWzzznL9O1jQIC1Nnj_XpFaiyxn_tKs_fcKx74IVPMlZmukipqyoVNaOPHrDE43p9PJYILDbeXf9dP8Ij1Z7luFkTuVzOilBM1rcXyJApINAXfuWcpEj4PAvF7uRDfiVntdTR8PX-FwEb5GoOENcAriZCIgGSj380AfW9r9jjkFl2tjLTpsN1HRdSukIidFMdvf3LZIn622trik-_GVbSBXWERIA9SP0vZWvzO2Gs7jsOW9oTICA9MVcA672aboalaoZnacfzUQdfZydU_ruP6je_LiVWuTQ0yTC5YCX5gVik9xGrOwJpDCVEtuCY0Ke-vYR-kpCzzO1dKf_gpcbUbwfd_N9lf0ZboZUEpNaaicXGFK6qhgUTY9t-sgVk663A3MqmcIv23NfaoBMXiaLnhDLgRjfkQ3lDbwdxIBpHKyMKywMj613GOoC36A12Zee1jTwzWTRP7hIUUebpW74fKbIBiQK89F7qegO1rTR_-FyAU1jkAdeiJv-lJd9dJ6tf0uthT_NvgQ5ksB-0G00]--></g></svg>