<svg xmlns="http://www.w3.org/2000/svg" xmlns:xlink="http://www.w3.org/1999/xlink" contentStyleType="text/css" height="623px" preserveAspectRatio="none" style="width:929px;height:623px;background:#FFFFFF;" version="1.1" viewBox="0 0 929 623" width="929px" zoomAndPan="magnify"><defs/><g><!--cluster 2b9afb89a6acc1575b159bfca38d10ad--><g id="cluster_2b9afb89a6acc1575b159bfca38d10ad"><polygon fill="none" points="16,16,26,6,292,6,292,268.19,282,278.19,16,278.19,16,16" style="stroke:#181818;stroke-width:1.0;"/><line style="stroke:#181818;stroke-width:1.0;" x1="282" x2="292" y1="16" y2="6"/><line style="stroke:#181818;stroke-width:1.0;" x1="16" x2="282" y1="16" y2="16"/><line style="stroke:#181818;stroke-width:1.0;" x1="282" x2="282" y1="16" y2="278.19"/><text fill="#000000" font-family="sans-serif" font-size="14" font-weight="bold" lengthAdjust="spacing" textLength="54" x="123" y="31.9951">Django</text></g><!--cluster d48bac364ad5e16c8a0b13f87d5ae9d5--><g id="cluster_d48bac364ad5e16c8a0b13f87d5ae9d5"><polygon fill="none" points="636,16,646,6,912,6,912,147.19,902,157.19,636,157.19,636,16" style="stroke:#181818;stroke-width:1.0;"/><line style="stroke:#181818;stroke-width:1.0;" x1="902" x2="912" y1="16" y2="6"/><line style="stroke:#181818;stroke-width:1.0;" x1="636" x2="902" y1="16" y2="16"/><line style="stroke:#181818;stroke-width:1.0;" x1="902" x2="902" y1="16" y2="157.19"/><text fill="#000000" font-family="sans-serif" font-size="14" font-weight="bold" lengthAdjust="spacing" textLength="51" x="744.5" y="31.9951">Celery</text></g><!--cluster aedb75dfc563674e1263316b01879722--><g id="cluster_aedb75dfc563674e1263316b01879722"><polygon fill="none" points="316,16,326,6,612,6,612,505.48,602,515.48,316,515.48,316,16" style="stroke:#181818;stroke-width:1.0;"/><line style="stroke:#181818;stroke-width:1.0;" x1="602" x2="612" y1="16" y2="6"/><line style="stroke:#181818;stroke-width:1.0;" x1="316" x2="602" y1="16" y2="16"/><line style="stroke:#181818;stroke-width:1.0;" x1="602" x2="602" y1="16" y2="515.48"/><text fill="#000000" font-family="sans-serif" font-size="14" font-weight="bold" lengthAdjust="spacing" textLength="73" x="423.5" y="31.9951">Rabbitmq</text></g><!--entity 7daba1d4c5af8b430797c813253fd1ba--><g id="elem_7daba1d4c5af8b430797c813253fd1ba"><rect fill="#F1F1F1" height="95.1875" rx="2.5" ry="2.5" style="stroke:#181818;stroke-width:0.5;" width="243" x="32.5" y="46"/><rect fill="#F1F1F1" height="10" style="stroke:#181818;stroke-width:0.5;" width="15" x="255.5" y="51"/><rect fill="#F1F1F1" height="2" style="stroke:#181818;stroke-width:0.5;" width="4" x="253.5" y="53"/><rect fill="#F1F1F1" height="2" style="stroke:#181818;stroke-width:0.5;" width="4" x="253.5" y="57"/><text fill="#000000" font-family="sans-serif" font-size="14" font-weight="bold" lengthAdjust="spacing" textLength="53" x="47.5" y="78.9951">django</text><text fill="#000000" font-family="sans-serif" font-size="14" lengthAdjust="spacing" textLength="4" x="47.5" y="95.292">&#160;</text><text fill="#000000" font-family="sans-serif" font-size="14" lengthAdjust="spacing" textLength="203" x="47.5" y="111.5889">image: atiqullah/task_ai:latest</text><text fill="#000000" font-family="sans-serif" font-size="14" lengthAdjust="spacing" textLength="4" x="47.5" y="127.8857">&#160;</text></g><!--entity 7c494a3e4fabc976b0a9e2ffaa3063ae--><g id="elem_7c494a3e4fabc976b0a9e2ffaa3063ae"><ellipse cx="154" cy="233.19" fill="#F1F1F1" rx="8" ry="8" style="stroke:#181818;stroke-width:0.5;"/><text fill="#000000" font-family="sans-serif" font-size="14" lengthAdjust="spacing" textLength="36" x="136" y="263.1851">8000</text></g><!--entity 08b7fccb45858be7a476d4e427762e0d--><g id="elem_08b7fccb45858be7a476d4e427762e0d"><rect fill="#F1F1F1" height="95.1875" rx="2.5" ry="2.5" style="stroke:#181818;stroke-width:0.5;" width="243" x="652.5" y="46"/><rect fill="#F1F1F1" height="10" style="stroke:#181818;stroke-width:0.5;" width="15" x="875.5" y="51"/><rect fill="#F1F1F1" height="2" style="stroke:#181818;stroke-width:0.5;" width="4" x="873.5" y="53"/><rect fill="#F1F1F1" height="2" style="stroke:#181818;stroke-width:0.5;" width="4" x="873.5" y="57"/><text fill="#000000" font-family="sans-serif" font-size="14" font-weight="bold" lengthAdjust="spacing" textLength="49" x="667.5" y="78.9951">celery</text><text fill="#000000" font-family="sans-serif" font-size="14" lengthAdjust="spacing" textLength="4" x="667.5" y="95.292">&#160;</text><text fill="#000000" font-family="sans-serif" font-size="14" lengthAdjust="spacing" textLength="203" x="667.5" y="111.5889">image: atiqullah/task_ai:latest</text><text fill="#000000" font-family="sans-serif" font-size="14" lengthAdjust="spacing" textLength="4" x="667.5" y="127.8857">&#160;</text></g><!--entity 4db5743728b42fdb09220a41ee031f8b--><g id="elem_4db5743728b42fdb09220a41ee031f8b"><rect fill="#F1F1F1" height="95.1875" rx="2.5" ry="2.5" style="stroke:#181818;stroke-width:0.5;" width="263" x="332.5" y="46"/><rect fill="#F1F1F1" height="10" style="stroke:#181818;stroke-width:0.5;" width="15" x="575.5" y="51"/><rect fill="#F1F1F1" height="2" style="stroke:#181818;stroke-width:0.5;" width="4" x="573.5" y="53"/><rect fill="#F1F1F1" height="2" style="stroke:#181818;stroke-width:0.5;" width="4" x="573.5" y="57"/><text fill="#000000" font-family="sans-serif" font-size="14" font-weight="bold" lengthAdjust="spacing" textLength="70" x="347.5" y="78.9951">rabbitmq</text><text fill="#000000" font-family="sans-serif" font-size="14" lengthAdjust="spacing" textLength="4" x="347.5" y="95.292">&#160;</text><text fill="#000000" font-family="sans-serif" font-size="14" lengthAdjust="spacing" textLength="223" x="347.5" y="111.5889">image: rabbitmq:3-management</text><text fill="#000000" font-family="sans-serif" font-size="14" lengthAdjust="spacing" textLength="4" x="347.5" y="127.8857">&#160;</text></g><!--entity 4957634cd47aad5304404c5864631bbd--><g id="elem_4957634cd47aad5304404c5864631bbd"><ellipse cx="477" cy="233.19" fill="#F1F1F1" rx="8" ry="8" style="stroke:#181818;stroke-width:0.5;"/><text fill="#000000" font-family="sans-serif" font-size="14" lengthAdjust="spacing" textLength="45" x="454.5" y="263.1851">15672</text></g><!--entity c51e1a916f5ded50b84b8fcbd505b505--><g id="elem_c51e1a916f5ded50b84b8fcbd505b505"><ellipse cx="569" cy="233.19" fill="#F1F1F1" rx="8" ry="8" style="stroke:#181818;stroke-width:0.5;"/><text fill="#000000" font-family="sans-serif" font-size="14" lengthAdjust="spacing" textLength="36" x="551" y="263.1851">5672</text></g><!--entity 99609796ad85b7eba2e573406dc0e19d--><g id="elem_99609796ad85b7eba2e573406dc0e19d"><rect fill="#F1F1F1" height="39.2969" rx="2.5" ry="2.5" style="stroke:#181818;stroke-width:0.5;" width="141" x="340.5" y="460.19"/><polygon fill="#F1F1F1" points="464.5,465.19,464.5,479.19,476.5,479.19,476.5,471.19,470.5,465.19,464.5,465.19" style="stroke:#181818;stroke-width:0.5;"/><line style="stroke:#181818;stroke-width:0.5;" x1="470.5" x2="470.5" y1="465.19" y2="471.19"/><line style="stroke:#181818;stroke-width:0.5;" x1="476.5" x2="470.5" y1="471.19" y2="471.19"/><text fill="#000000" font-family="sans-serif" font-size="14" lengthAdjust="spacing" textLength="111" x="350.5" y="486.1851">/var/lib/rabbitmq</text></g><!--entity 1624c420083928ef3e240dd88f2e52f0--><g id="elem_1624c420083928ef3e240dd88f2e52f0"><ellipse cx="154" cy="370.19" fill="#F1F1F1" rx="8" ry="8" style="stroke:#181818;stroke-width:0.5;"/><text fill="#000000" font-family="sans-serif" font-size="14" lengthAdjust="spacing" textLength="36" x="136" y="400.1851">8000</text></g><!--entity 072e89e4595de611dfb6c49b533d1cbe--><g id="elem_072e89e4595de611dfb6c49b533d1cbe"><ellipse cx="658" cy="370.19" fill="#F1F1F1" rx="8" ry="8" style="stroke:#181818;stroke-width:0.5;"/><text fill="#000000" font-family="sans-serif" font-size="14" lengthAdjust="spacing" textLength="45" x="635.5" y="400.1851">15672</text></g><!--entity 4eb8793a2d7afd0ce9f90b648f63e327--><g id="elem_4eb8793a2d7afd0ce9f90b648f63e327"><ellipse cx="750" cy="370.19" fill="#F1F1F1" rx="8" ry="8" style="stroke:#181818;stroke-width:0.5;"/><text fill="#000000" font-family="sans-serif" font-size="14" lengthAdjust="spacing" textLength="36" x="732" y="400.1851">5672</text></g><!--entity 0c8e79e3a4cedb571cef0b434878d0d5--><g id="elem_0c8e79e3a4cedb571cef0b434878d0d5"><rect fill="#F1F1F1" height="39.2969" rx="2.5" ry="2.5" style="stroke:#181818;stroke-width:0.5;" width="128" x="347" y="578.48"/><polygon fill="#F1F1F1" points="458,583.48,458,597.48,470,597.48,470,589.48,464,583.48,458,583.48" style="stroke:#181818;stroke-width:0.5;"/><line style="stroke:#181818;stroke-width:0.5;" x1="464" x2="464" y1="583.48" y2="589.48"/><line style="stroke:#181818;stroke-width:0.5;" x1="470" x2="464" y1="589.48" y2="589.48"/><text fill="#000000" font-family="sans-serif" font-size="14" lengthAdjust="spacing" textLength="98" x="357" y="604.4751">rabbitmq_data</text></g><!--link 7daba1d4c5af8b430797c813253fd1ba to 7c494a3e4fabc976b0a9e2ffaa3063ae--><g id="link_7daba1d4c5af8b430797c813253fd1ba_7c494a3e4fabc976b0a9e2ffaa3063ae"><path codeLine="34" d="M154,141.56 C154,172.08 154,208.99 154,224.61 " fill="none" id="7daba1d4c5af8b430797c813253fd1ba-7c494a3e4fabc976b0a9e2ffaa3063ae" style="stroke:#181818;stroke-width:1.0;"/></g><!--link 7c494a3e4fabc976b0a9e2ffaa3063ae to 1624c420083928ef3e240dd88f2e52f0--><g id="link_7c494a3e4fabc976b0a9e2ffaa3063ae_1624c420083928ef3e240dd88f2e52f0"><path codeLine="35" d="M154,241.83 C154,265.48 154,337.3 154,361.29 " fill="none" id="7c494a3e4fabc976b0a9e2ffaa3063ae-1624c420083928ef3e240dd88f2e52f0" style="stroke:#181818;stroke-width:1.0;"/></g><!--link 4db5743728b42fdb09220a41ee031f8b to 4957634cd47aad5304404c5864631bbd--><g id="link_4db5743728b42fdb09220a41ee031f8b_4957634cd47aad5304404c5864631bbd"><path codeLine="36" d="M468.44,141.56 C471.32,172.08 474.81,208.99 476.28,224.61 " fill="none" id="4db5743728b42fdb09220a41ee031f8b-4957634cd47aad5304404c5864631bbd" style="stroke:#181818;stroke-width:1.0;"/></g><!--link 4957634cd47aad5304404c5864631bbd to 072e89e4595de611dfb6c49b533d1cbe--><g id="link_4957634cd47aad5304404c5864631bbd_072e89e4595de611dfb6c49b533d1cbe"><path codeLine="37" d="M482.96,241.84 C491.53,252.55 508.16,272.24 525,286.19 C530.63,290.85 620.61,346.22 649.29,363.84 " fill="none" id="4957634cd47aad5304404c5864631bbd-072e89e4595de611dfb6c49b533d1cbe" style="stroke:#181818;stroke-width:1.0;"/></g><!--link 4db5743728b42fdb09220a41ee031f8b to c51e1a916f5ded50b84b8fcbd505b505--><g id="link_4db5743728b42fdb09220a41ee031f8b_c51e1a916f5ded50b84b8fcbd505b505"><path codeLine="38" d="M499.84,141.56 C523.13,172.08 551.3,208.99 563.22,224.61 " fill="none" id="4db5743728b42fdb09220a41ee031f8b-c51e1a916f5ded50b84b8fcbd505b505" style="stroke:#181818;stroke-width:1.0;"/></g><!--link c51e1a916f5ded50b84b8fcbd505b505 to 4eb8793a2d7afd0ce9f90b648f63e327--><g id="link_c51e1a916f5ded50b84b8fcbd505b505_4eb8793a2d7afd0ce9f90b648f63e327"><path codeLine="39" d="M577.73,240.7 C608.38,263.56 710.85,339.98 741.36,362.74 " fill="none" id="c51e1a916f5ded50b84b8fcbd505b505-4eb8793a2d7afd0ce9f90b648f63e327" style="stroke:#181818;stroke-width:1.0;"/></g><!--link 99609796ad85b7eba2e573406dc0e19d to 0c8e79e3a4cedb571cef0b434878d0d5--><g id="link_99609796ad85b7eba2e573406dc0e19d_0c8e79e3a4cedb571cef0b434878d0d5"><path codeLine="40" d="M411,499.78 C411,521.4 411,556.57 411,578.2 " fill="none" id="99609796ad85b7eba2e573406dc0e19d-0c8e79e3a4cedb571cef0b434878d0d5" style="stroke:#181818;stroke-width:1.0;"/><text fill="#000000" font-family="sans-serif" font-size="13" lengthAdjust="spacing" textLength="14" x="412" y="544.5469">rw</text></g><!--link 4db5743728b42fdb09220a41ee031f8b to 99609796ad85b7eba2e573406dc0e19d--><g id="link_4db5743728b42fdb09220a41ee031f8b_99609796ad85b7eba2e573406dc0e19d"><path codeLine="41" d="M446.84,141.46 C440.5,160.65 433.92,183.23 430,204.19 C412.25,299.09 410.6626,409.22 410.7926,454 " fill="none" id="4db5743728b42fdb09220a41ee031f8b-to-99609796ad85b7eba2e573406dc0e19d" style="stroke:#181818;stroke-width:1.0;stroke-dasharray:7.0,7.0;"/><polygon fill="#181818" points="410.81,460,414.7839,450.9884,410.7955,455,406.7839,451.0117,410.81,460" style="stroke:#181818;stroke-width:1.0;"/><text fill="#000000" font-family="sans-serif" font-size="13" lengthAdjust="spacing" textLength="23" x="418" y="307.2569">use</text></g><!--SRC=[ZPFDZjD048JlVWeh9uYqoVpq_EN01Pw0AqAhxkcUO70IDl6o8CIxCt4sQCDbzc39idhAzLNNu3WUddR3ps6_xVO7bdxnuIlkjuT5ZwVUKC92CQ77dBKBZhHBL3BQo5eXzx-xFXzstmzxsKzzO2JK3DbXYGHMXHHorDOuMrWJzf-wvP9dzUMowuOTRcNJupGyF8uZVbbFUFfsZyDcn4bEKzTzxjwyxHTHAJMR2HaIe1KeI3a5JmgJc58GhV8MfVlp3F1UHZd-ciymHC9iFI0xqJv7LAHjYO4TIc9t2w0YXP8pWOikaWI4u1a4J0ZUYE8P8C_ghmIuMlg8HCEqUvXDeJ05noKxRtq0qSPRgokFZZKnOsvD0PCBO8EfaPh2f98n2a6BAAjhphEfuxF-2rlNJnjxjyDz_RIhQjTGjVF1p6OWkU0jP8Q0DIIh05JTOFJWhIRYUVpVT7PQD2RjYsDXfoW2nPAflZggJuV7QIYOftwn_e77zJZG-lYIFIMlKaWUEJeAGcZ41GlASrQY4zV4RfQklO4CHgbeaubIh1XGp36MUj0KzH-D2aPY4d2f-lDQSo5VQqFEMjQPv9O6X6hY5Wq7BAoof98KUOZ5Mx4clA2vGjmpJdZvLOuIabY4BESLwIn5rTP3394Lkwvv7Uxuhbtgri2iqaofMQApIhCAhO5PfRc2Ltbf5gqrS25gBRXLnmjHOzFzflRZQT46MwrujNhNl0DdlSUJBFu2]--></g></svg>